<?xml version="1.0" encoding="iso-8859-1"?>
<!-- Generator: Adobe Illustrator 19.0.0, SVG Export Plug-In . SVG Version: 6.00 Build 0)  -->
<svg version="1.1" id="Capa_1" xmlns="http://www.w3.org/2000/svg" xmlns:xlink="http://www.w3.org/1999/xlink" x="0px" y="0px"
	 viewBox="0 0 512 512" style="enable-background:new 0 0 512 512;" xml:space="preserve">
<g>
	<g>
		<path d="M362,206c-5.52,0-10,4.48-10,10s4.48,10,10,10c5.52,0,10-4.48,10-10S367.52,206,362,206z"/>
	</g>
</g>
<g>
	<g>
		<path d="M512,356v-80c0-60.654-49.346-110-110-110h-88.923c-10.069-11.231-22.927-19.824-37.077-24.846V89.986
			c3.781-2.84,7.144-6.203,9.985-9.986H356c16.542,0,30-13.458,30-30s-13.458-30-30-30h-70.02C276.603,7.543,261.779,0,246,0
			c-15.777,0-30.598,7.54-39.979,20H136c-16.542,0-30,13.458-30,30s13.458,30,30,30h70.014c2.84,3.781,6.203,7.144,9.986,9.985
			v51.169c-14.153,5.024-27.009,13.616-37.077,24.845H80v-10c0-16.542-13.458-30-30-30H10c-5.523,0-10,4.477-10,10v180
			c0,5.523,4.477,10,10,10h40c16.542,0,30-13.458,30-30v-10h98.917c17.086,19.126,41.267,30,67.083,30
			c25.816,0,49.997-10.874,67.083-30H382c5.514,0,10,4.486,10,10v60c0,5.523,4.477,9.9,10,9.9h30.806
			C417.365,388.79,392,429.862,392,452c0,33.084,26.916,60,60,60s60-26.916,60-60c0-22.138-25.365-63.109-40.806-86H502
			C507.523,366,512,361.523,512,356z M294.983,40H356c5.514,0,10,4.486,10,10s-4.486,10-10,10h-61.017
			c0.669-3.28,1.017-6.63,1.017-10S295.652,43.28,294.983,40z M197.017,60H136c-5.514,0-10-4.486-10-10s4.486-10.1,10-10.1h61.017
			C196.348,43.18,196,46.63,196,50S196.348,56.72,197.017,60z M60,296c0,5.514-4.486,10-10,10H20V146h30c5.514,0,10,4.486,10,10V296
			z M246,20c16.254,0,30,13.154,30,30c0,16.7-13.539,30-30,30c-16.585,0-30-13.438-30-30C216,33.188,229.711,20,246,20z M256,98.983
			v37.591c-6.638-0.732-13.366-0.732-20,0V98.983c3.28,0.669,6.63,1.017,10,1.017S252.72,99.652,256,98.983z M492,452
			c0,22.056-17.944,40-40,40c-22.056,0-40-17.944-40-40c0-15.312,22.023-52.457,40.001-78.678C469.979,399.535,492,436.673,492,452z
			 M492,346h-80v-50c0-16.542-13.458-30-30-30h-73.55c-3.035,0-5.905,1.378-7.803,3.746C287.274,286.431,267.355,296,246,296
			c-21.355,0-41.274-9.569-54.647-26.254c-1.898-2.368-4.768-3.746-7.803-3.746H80v-80h103.55c3.035,0,5.906-1.378,7.803-3.747
			c9.43-11.768,22.62-20.305,37.147-24.041c11.371-2.937,23.62-2.938,35.009,0.002c14.519,3.734,27.708,12.271,37.138,24.039
			c1.897,2.368,4.769,3.747,7.803,3.747H402c49.626,0,90,40.374,90,90V346z"/>
	</g>
</g>
<g>
	<g>
		<path d="M402,206c-5.523,0-10,4.477-10,10s4.477,10,10,10c27.57,0,50,22.43,50,50v20c0,5.523,4.477,10,10,10s10-4.477,10-10v-20
			C472,237.402,440.598,206,402,206z"/>
	</g>
</g>
<g>
</g>
<g>
</g>
<g>
</g>
<g>
</g>
<g>
</g>
<g>
</g>
<g>
</g>
<g>
</g>
<g>
</g>
<g>
</g>
<g>
</g>
<g>
</g>
<g>
</g>
<g>
</g>
<g>
</g>
</svg>
