<svg id="Layer_2" enable-background="new 0 0 64 64" viewBox="0 0 64 64" xmlns="http://www.w3.org/2000/svg"><g><path d="m43.9 12.6v-9.8c0-.6-.4-1-1-1h-21.8c-.6 0-1 .4-1 1v9.8c-6.1 1-10.7 6.4-10.7 12.8v19.3c0 6.4 4.7 11.7 10.8 12.8v3.3c0 .6.4 1 1 1h21.8c.6 0 1-.4 1-1v-3.3c6-1.1 10.6-6.5 10.6-12.9v-19.2c0-6.4-4.6-11.8-10.7-12.8zm-21.8-8.8h19.8v8.6h-3.9v-5.8c0-.6-.4-1-1-1h-10c-.6 0-1 .4-1 1v5.7h-3.9zm13.9 3.8v4.7h-8v-4.7zm5.9 52.2h-19.8v-2.1h19.8zm10.7-15.2c0 6.1-4.9 11-11 11h-19.2c-6.1 0-11-4.9-11-11v-19.2c0-6.1 4.9-11 11-11h19.3c6.1 0 11 4.9 11 11v19.2z"/><path d="m32 26.8c-.1 0-6.7 5.4-6.3 9.6.1 1.1.7 2.6 2.8 3.7.2.1 1.2-.1 1.4-.4.3-.5.1-1.1-.4-1.4-1.1-.6-1.6-1.3-1.7-2.2-.2-2.3 2.6-5.5 4.3-7.1 1.7 1.6 4.5 4.7 4.3 7.1-.1.9-.7 1.6-1.7 2.2-.5.3-.7.9-.4 1.4.2.3 1.2.5 1.4.4 2.1-1.1 2.7-2.7 2.8-3.7.2-4.2-6.4-9.6-6.5-9.6z"/></g></svg>