<svg id="Layer_1" enable-background="new 0 0 512 512" viewBox="0 0 512 512" xmlns="http://www.w3.org/2000/svg"><path d="m401.098 416.863c-13.348 0-24.206 10.858-24.206 24.206s10.858 24.207 24.206 24.207 24.207-10.859 24.207-24.207-10.86-24.206-24.207-24.206zm0 32.413c-4.524 0-8.206-3.682-8.206-8.207 0-4.524 3.682-8.206 8.206-8.206 4.525 0 8.207 3.682 8.207 8.206 0 4.525-3.682 8.207-8.207 8.207zm94.902-266.525h-26.91v-37.4c7.473-6.154 12.247-15.473 12.247-25.887 0-18.485-15.038-33.524-33.523-33.524h-38.334v-15.879c0-3.987 3.244-7.23 7.231-7.23h23.687c4.418 0 8-3.582 8-8v-25.998c0-4.418-3.582-8-8-8h-42.578c-20.686 0-37.515 16.828-37.515 37.514v27.593h-31.7v-22.44c0-9.214-7.496-16.71-16.71-16.71h-32.235c-9.215 0-16.711 7.496-16.711 16.71v22.44h-27.75v-31.15c0-4.418-3.582-8-8-8h-145.337c-4.418 0-8 3.582-8 8v31.165c-18.216.314-32.939 15.22-32.939 33.51 0 10.415 4.774 19.734 12.248 25.888v22.12l-.695-.499-42.977 59.93c-.975 1.359-1.499 2.989-1.499 4.662v135.349c0 4.418 3.582 8 8 8h37.171v11.044c0 11.281 9.178 20.46 20.459 20.46h13.457v51.281c0 17.937 14.592 32.528 32.528 32.528s32.529-14.592 32.529-32.528v-13.167h198.989c1.787 26.013 23.506 46.635 49.964 46.635s48.178-20.622 49.964-46.635h2.244c8.703 0 15.784-7.081 15.784-15.785v-41.753h-.052c.017-.345.052-.687.052-1.036v-30.161h26.911c4.418 0 8-3.582 8-8v-157.047c0-4.418-3.582-8-8-8zm-63.603-135.92h-9.767v-9.998h9.767zm-56.092 11.515c0-11.862 9.651-21.514 21.515-21.514h8.812v12.301c-7.775 3.76-13.151 11.727-13.151 20.927v15.88h-17.175v-27.594zm-97.357 5.154c0-.372.339-.71.711-.71h32.235c.371 0 .71.338.71.71v22.44h-33.656zm-59.75-.71v23.15h-129.336v-23.15zm-144.751 39.15h373.366c9.662 0 17.523 7.861 17.523 17.524s-7.861 17.524-17.523 17.524h-373.366c-9.663 0-17.524-7.861-17.524-17.524s7.861-17.524 17.524-17.524zm-50.447 256.975v-124.777l29.171-40.679v165.456zm45.171 27.043v-233.388c1.72.273 3.481.419 5.276.419h373.366c1.795 0 3.557-.146 5.276-.419v233.389c0 2.418-2.042 4.46-4.459 4.46h-375c-2.417-.001-4.459-2.043-4.459-4.461zm50.444 88.27c-9.114 0-16.528-7.415-16.528-16.528v-51.281h33.058v51.281c0 9.113-7.416 16.528-16.53 16.528zm233.03-45.695h-200.5v-22.114h214.341c-6.58 5.784-11.455 13.321-13.841 22.114zm48.453 46.634c-18.802 0-34.098-15.297-34.098-34.099 0-18.801 15.296-34.097 34.098-34.097s34.098 15.296 34.098 34.097c-.001 18.803-15.297 34.099-34.098 34.099zm48.452-46.634c-2.385-8.792-7.26-16.33-13.841-22.114h12.921c1.533 0 3.021-.183 4.459-.504v22.619h-3.539zm38.45-88.736h-18.91v-141.046h18.91zm-247.493-151.769h-146.374c-4.418 0-8 3.582-8 8v173.698c0 4.418 3.582 8 8 8h146.374c4.418 0 8-3.582 8-8v-173.698c0-4.418-3.582-8-8-8zm-8 173.698h-130.374v-157.698h130.374zm-115.677-60.671h35.592l-5.483 46.985c-.412 3.537 1.562 6.921 4.846 8.302 1.004.422 2.057.626 3.098.625 2.363 0 4.67-1.048 6.225-2.971l62.926-77.84c1.938-2.397 2.326-5.694.997-8.477-1.328-2.781-4.136-4.553-7.219-4.553h-36.1l2.671-45.876c.203-3.494-1.889-6.715-5.164-7.95-3.272-1.235-6.973-.196-9.127 2.562l-59.565 76.269c-1.883 2.41-2.227 5.683-.886 8.432 1.34 2.748 4.13 4.492 7.189 4.492zm50.089-59.137-1.674 28.744c-.128 2.198.656 4.353 2.167 5.955 1.512 1.602 3.617 2.51 5.819 2.51h27.825l-35.023 43.324 3.322-28.47c.265-2.268-.452-4.54-1.971-6.246-1.518-1.705-3.692-2.681-5.976-2.681h-28.181zm263.237 21.05h-152.607c-4.418 0-8 3.582-8 8v98.758c0 4.418 3.582 8 8 8h152.607c4.418 0 8-3.582 8-8v-98.758c0-4.418-3.582-8-8-8zm-8 16v12.781h-136.607v-12.781zm0 28.782v25.195h-136.607v-25.195zm-136.607 53.976v-12.781h136.607v12.781zm103.709-202.52c-26.963 0-48.899 21.936-48.899 48.898s21.937 48.898 48.899 48.898 48.898-21.936 48.898-48.898-21.935-48.898-48.898-48.898zm-32.9 48.898c0-18.141 14.759-32.898 32.899-32.898s32.898 14.758 32.898 32.898c0 5.592-1.406 10.861-3.878 15.477l-23.652-21.409c-3.274-2.965-8.333-2.714-11.299.562s-2.714 8.335.562 11.3l23.649 21.407c-5.232 3.51-11.521 5.562-18.281 5.562-18.139-.001-32.898-14.758-32.898-32.899z"/></svg>