<?xml version="1.0" encoding="UTF-8"?>
<svg xmlns="http://www.w3.org/2000/svg" id="Layer_3" data-name="Layer 3" viewBox="0 0 64 64" width="512" height="512"><path d="M11,34V49H8a1,1,0,0,0-1,1V62a1,1,0,0,0,1,1h4a1,1,0,0,0,1-1v-.026A4.948,4.948,0,0,0,16,63H30a4.948,4.948,0,0,0,3-1.026V62a1,1,0,0,0,1,1h4a1,1,0,0,0,1-1V50a1,1,0,0,0-1-1H35V46.9A5.009,5.009,0,0,0,39,42V9a4.009,4.009,0,0,1,2-3.457V15a1,1,0,0,0,.445.832L50,21.535V53a1,1,0,0,0-1,1v8a1,1,0,0,0,1,1h6a1,1,0,0,0,1-1V54a1,1,0,0,0-1-1V7a1,1,0,0,0-1-1H51.362l-5.11-4.259A3.19,3.19,0,0,0,41.14,3.316,6.006,6.006,0,0,0,37,9V42a3,3,0,0,1-2,2.816V34a5,5,0,0,0-4.146-4.914L28.1,13.47l2.456-1.638A1,1,0,0,0,31,11V6a5.006,5.006,0,0,0-5-5H20a5.006,5.006,0,0,0-5,5v5a1,1,0,0,0,.445.832L17.9,13.47,15.146,29.086A5,5,0,0,0,11,34ZM43,14.465v-6.6l7,4.667v6.6ZM54,36H52V28h2Zm1,25H51V55h4Zm-3-8V38h2V53Zm2-27H52V8h2ZM44.2,3a1.209,1.209,0,0,1,.77.278L50,7.469v2.663L43,5.465V4.2A1.2,1.2,0,0,1,44.2,3ZM33,42.382l-5.447,2.723A1,1,0,0,0,27,46V61H19V46a1,1,0,0,0-.553-.9L13,42.382V36H33ZM11,61H9V51h2V61Zm2-3V44.618l4,2V61H16A3,3,0,0,1,13,58Zm17,3H29V46.618l4-2V58A3,3,0,0,1,30,61Zm7-10V61H35V51ZM33,34H13a3,3,0,0,1,3-3H30A3,3,0,0,1,33,34ZM21.153,29l1.7-11.869a.158.158,0,0,1,.3,0L24.847,29ZM20,3h6a3,3,0,0,1,2.816,2H17.184A3,3,0,0,1,20,3Zm-3,7.465V7H29v3.465L26.907,11.86a9.632,9.632,0,0,0-7.814,0Zm2.893,3.224a7.6,7.6,0,0,1,6.214,0L28.808,29h-1.94L25.132,16.849a2.154,2.154,0,0,0-4.264,0L19.132,29h-1.94Z"/><circle cx="23" cy="57" r="2"/><path d="M23,46a2.993,2.993,0,0,0,1-5.814L24,38,22,38l0,2.18A2.992,2.992,0,0,0,23,46Zm0-4a1,1,0,1,1-1,1A1,1,0,0,1,23,42Z"/></svg>
