<?xml version="1.0" encoding="UTF-8" standalone="no"?>
<!-- Created with Inkscape (http://www.inkscape.org/) -->

<svg
   version="1.1"
   id="svg1959"
   xml:space="preserve"
   width="682.66669"
   height="682.66669"
   viewBox="0 0 682.66669 682.66669"
   xmlns="http://www.w3.org/2000/svg"
   xmlns:svg="http://www.w3.org/2000/svg"><defs
     id="defs1963"><clipPath
       clipPathUnits="userSpaceOnUse"
       id="clipPath1973"><path
         d="M 0,512 H 512 V 0 H 0 Z"
         id="path1971" /></clipPath><clipPath
       clipPathUnits="userSpaceOnUse"
       id="clipPath1989"><path
         d="M 0,512 H 512 V 0 H 0 Z"
         id="path1987" /></clipPath><clipPath
       clipPathUnits="userSpaceOnUse"
       id="clipPath2013"><path
         d="M 0,512 H 512 V 0 H 0 Z"
         id="path2011" /></clipPath><clipPath
       clipPathUnits="userSpaceOnUse"
       id="clipPath2029"><path
         d="M 0,512 H 512 V 0 H 0 Z"
         id="path2027" /></clipPath><clipPath
       clipPathUnits="userSpaceOnUse"
       id="clipPath2053"><path
         d="M 0,512 H 512 V 0 H 0 Z"
         id="path2051" /></clipPath><clipPath
       clipPathUnits="userSpaceOnUse"
       id="clipPath2069"><path
         d="M 0,512 H 512 V 0 H 0 Z"
         id="path2067" /></clipPath><clipPath
       clipPathUnits="userSpaceOnUse"
       id="clipPath2093"><path
         d="M 0,512 H 512 V 0 H 0 Z"
         id="path2091" /></clipPath></defs><g
     id="g1965"
     transform="matrix(1.3333333,0,0,-1.3333333,0,682.66667)"><g
       id="g1967"><g
         id="g1969"
         clip-path="url(#clipPath1973)"><g
           id="g1975"
           transform="translate(398.077,502)"><path
             d="M 0,0 V -240"
             style="fill:none;stroke:#000000;stroke-width:20;stroke-linecap:round;stroke-linejoin:round;stroke-miterlimit:10;stroke-dasharray:none;stroke-opacity:1"
             id="path1977" /></g></g></g><g
       id="g1979"
       transform="translate(420.4345,284.1858)"><path
         d="M 0,0 -22.358,22.358 -44.715,0"
         style="fill:none;stroke:#000000;stroke-width:20;stroke-linecap:round;stroke-linejoin:round;stroke-miterlimit:10;stroke-dasharray:none;stroke-opacity:1"
         id="path1981" /></g><g
       id="g1983"><g
         id="g1985"
         clip-path="url(#clipPath1989)"><g
           id="g1991"
           transform="translate(420.4345,479.8142)"><path
             d="M 0,0 -22.358,-22.358 -44.715,0"
             style="fill:none;stroke:#000000;stroke-width:20;stroke-linecap:round;stroke-linejoin:round;stroke-miterlimit:10;stroke-dasharray:none;stroke-opacity:1"
             id="path1993" /></g><g
           id="g1995"
           transform="translate(294.1539,322)"><path
             d="M 0,0 207.846,120"
             style="fill:none;stroke:#000000;stroke-width:20;stroke-linecap:round;stroke-linejoin:round;stroke-miterlimit:10;stroke-dasharray:none;stroke-opacity:1"
             id="path1997" /></g><g
           id="g1999"
           transform="translate(471.6078,450.2693)"><path
             d="m 0,0 -8.183,-30.541 30.541,-8.183"
             style="fill:none;stroke:#000000;stroke-width:20;stroke-linecap:round;stroke-linejoin:round;stroke-miterlimit:10;stroke-dasharray:none;stroke-opacity:1"
             id="path2001" /></g></g></g><g
       id="g2003"
       transform="translate(302.1886,352.4551)"><path
         d="M 0,0 30.541,-8.183 22.358,-38.724"
         style="fill:none;stroke:#000000;stroke-width:20;stroke-linecap:round;stroke-linejoin:round;stroke-miterlimit:10;stroke-dasharray:none;stroke-opacity:1"
         id="path2005" /></g><g
       id="g2007"><g
         id="g2009"
         clip-path="url(#clipPath2013)"><g
           id="g2015"
           transform="translate(502,322)"><path
             d="M 0,0 -207.846,120"
             style="fill:none;stroke:#000000;stroke-width:20;stroke-linecap:round;stroke-linejoin:round;stroke-miterlimit:10;stroke-dasharray:none;stroke-opacity:1"
             id="path2017" /></g></g></g><g
       id="g2019"
       transform="translate(302.1886,411.5449)"><path
         d="M 0,0 30.541,8.183 22.358,38.724"
         style="fill:none;stroke:#000000;stroke-width:20;stroke-linecap:round;stroke-linejoin:round;stroke-miterlimit:10;stroke-dasharray:none;stroke-opacity:1"
         id="path2021" /></g><g
       id="g2023"><g
         id="g2025"
         clip-path="url(#clipPath2029)"><g
           id="g2031"
           transform="translate(471.6078,313.7307)"><path
             d="m 0,0 -8.183,30.541 30.541,8.183"
             style="fill:none;stroke:#000000;stroke-width:20;stroke-linecap:round;stroke-linejoin:round;stroke-miterlimit:10;stroke-dasharray:none;stroke-opacity:1"
             id="path2033" /></g><g
           id="g2035"
           transform="translate(113.923,250)"><path
             d="M 0,0 V -240"
             style="fill:none;stroke:#000000;stroke-width:20;stroke-linecap:round;stroke-linejoin:round;stroke-miterlimit:10;stroke-dasharray:none;stroke-opacity:1"
             id="path2037" /></g><g
           id="g2039"
           transform="translate(136.2806,32.1858)"><path
             d="M 0,0 -22.358,22.358 -44.715,0"
             style="fill:none;stroke:#000000;stroke-width:20;stroke-linecap:round;stroke-linejoin:round;stroke-miterlimit:10;stroke-dasharray:none;stroke-opacity:1"
             id="path2041" /></g></g></g><g
       id="g2043"
       transform="translate(136.2806,227.8142)"><path
         d="M 0,0 -22.358,-22.358 -44.715,0"
         style="fill:none;stroke:#000000;stroke-width:20;stroke-linecap:round;stroke-linejoin:round;stroke-miterlimit:10;stroke-dasharray:none;stroke-opacity:1"
         id="path2045" /></g><g
       id="g2047"><g
         id="g2049"
         clip-path="url(#clipPath2053)"><g
           id="g2055"
           transform="translate(10,70)"><path
             d="M 0,0 207.846,120"
             style="fill:none;stroke:#000000;stroke-width:20;stroke-linecap:round;stroke-linejoin:round;stroke-miterlimit:10;stroke-dasharray:none;stroke-opacity:1"
             id="path2057" /></g></g></g><g
       id="g2059"
       transform="translate(187.4539,198.2693)"><path
         d="m 0,0 -8.183,-30.541 30.541,-8.183"
         style="fill:none;stroke:#000000;stroke-width:20;stroke-linecap:round;stroke-linejoin:round;stroke-miterlimit:10;stroke-dasharray:none;stroke-opacity:1"
         id="path2061" /></g><g
       id="g2063"><g
         id="g2065"
         clip-path="url(#clipPath2069)"><g
           id="g2071"
           transform="translate(18.0347,100.4551)"><path
             d="M 0,0 30.541,-8.183 22.358,-38.724"
             style="fill:none;stroke:#000000;stroke-width:20;stroke-linecap:round;stroke-linejoin:round;stroke-miterlimit:10;stroke-dasharray:none;stroke-opacity:1"
             id="path2073" /></g><g
           id="g2075"
           transform="translate(217.8461,70)"><path
             d="M 0,0 -207.846,120"
             style="fill:none;stroke:#000000;stroke-width:20;stroke-linecap:round;stroke-linejoin:round;stroke-miterlimit:10;stroke-dasharray:none;stroke-opacity:1"
             id="path2077" /></g><g
           id="g2079"
           transform="translate(18.0347,159.5449)"><path
             d="M 0,0 30.541,8.183 22.358,38.724"
             style="fill:none;stroke:#000000;stroke-width:20;stroke-linecap:round;stroke-linejoin:round;stroke-miterlimit:10;stroke-dasharray:none;stroke-opacity:1"
             id="path2081" /></g></g></g><g
       id="g2083"
       transform="translate(187.4539,61.7307)"><path
         d="m 0,0 -8.183,30.541 30.541,8.183"
         style="fill:none;stroke:#000000;stroke-width:20;stroke-linecap:round;stroke-linejoin:round;stroke-miterlimit:10;stroke-dasharray:none;stroke-opacity:1"
         id="path2085" /></g><g
       id="g2087"><g
         id="g2089"
         clip-path="url(#clipPath2093)"><g
           id="g2095"
           transform="translate(448,88)"><path
             d="m 0,0 c 0,-13.255 -10.745,-24 -24,-24 -13.255,0 -24,10.745 -24,24 0,13.255 10.745,24 24,24 C -10.745,24 0,13.255 0,0 Z"
             style="fill:none;stroke:#000000;stroke-width:20;stroke-linecap:round;stroke-linejoin:round;stroke-miterlimit:10;stroke-dasharray:none;stroke-opacity:1"
             id="path2097" /></g><g
           id="g2099"
           transform="translate(88,448)"><path
             d="m 0,0 c -13.255,0 -24,-10.745 -24,-24 0,-13.255 10.745,-24 24,-24 13.255,0 24,10.745 24,24 C 24,-10.745 13.255,0 0,0 Z"
             style="fill:none;stroke:#000000;stroke-width:20;stroke-linecap:round;stroke-linejoin:round;stroke-miterlimit:10;stroke-dasharray:none;stroke-opacity:1"
             id="path2101" /></g><g
           id="g2103"
           transform="translate(280,256)"><path
             d="m 0,0 c 0,-13.255 -10.745,-24 -24,-24 -13.255,0 -24,10.745 -24,24 0,13.255 10.745,24 24,24 C -10.745,24 0,13.255 0,0 Z"
             style="fill:none;stroke:#000000;stroke-width:20;stroke-linecap:round;stroke-linejoin:round;stroke-miterlimit:10;stroke-dasharray:none;stroke-opacity:1"
             id="path2105" /></g><g
           id="g2107"
           transform="translate(345.0936,166.9064)"><path
             d="M 0,0 V 0"
             style="fill:none;stroke:#000000;stroke-width:20;stroke-linecap:round;stroke-linejoin:round;stroke-miterlimit:10;stroke-dasharray:none;stroke-opacity:1"
             id="path2109" /></g><g
           id="g2111"
           transform="translate(165.8128,502)"><path
             d="M 0,0 V 0"
             style="fill:none;stroke:#000000;stroke-width:20;stroke-linecap:round;stroke-linejoin:round;stroke-miterlimit:10;stroke-dasharray:none;stroke-opacity:1"
             id="path2113" /></g><g
           id="g2115"
           transform="translate(10,343.5381)"><path
             d="M 0,0 V 0"
             style="fill:none;stroke:#000000;stroke-width:20;stroke-linecap:round;stroke-linejoin:round;stroke-miterlimit:10;stroke-dasharray:none;stroke-opacity:1"
             id="path2117" /></g><g
           id="g2119"
           transform="translate(167.3333,344.5)"><path
             d="M 0,0 V 0"
             style="fill:none;stroke:#000000;stroke-width:20;stroke-linecap:round;stroke-linejoin:round;stroke-miterlimit:10;stroke-dasharray:none;stroke-opacity:1"
             id="path2121" /></g><g
           id="g2123"
           transform="translate(502,165.8128)"><path
             d="M 0,0 V 0"
             style="fill:none;stroke:#000000;stroke-width:20;stroke-linecap:round;stroke-linejoin:round;stroke-miterlimit:10;stroke-dasharray:none;stroke-opacity:1"
             id="path2125" /></g><g
           id="g2127"
           transform="translate(344,10)"><path
             d="M 0,0 V 0"
             style="fill:none;stroke:#000000;stroke-width:20;stroke-linecap:round;stroke-linejoin:round;stroke-miterlimit:10;stroke-dasharray:none;stroke-opacity:1"
             id="path2129" /></g></g></g></g></svg>
